<svg version="1.1" viewBox="0.0 0.0 960.0 720.0" fill="none" stroke="none" stroke-linecap="square" stroke-miterlimit="10" xmlns:xlink="http://www.w3.org/1999/xlink" xmlns="http://www.w3.org/2000/svg"><clipPath id="p.0"><path d="m0 0l960.0 0l0 720.0l-960.0 0l0 -720.0z" clip-rule="nonzero"/></clipPath><g clip-path="url(#p.0)"><path fill="#000000" fill-opacity="0.0" d="m0 0l960.0 0l0 720.0l-960.0 0z" fill-rule="evenodd"/><path fill="#000000" fill-opacity="0.0" d="m-0.7506562 443.7638l18.0 0l22.501312 -4.126007l20.624672 -6.1259766l67.874016 -29.748016l39.12599 -26.126007l70.0 -52.75064l54.24933 -43.123352l38.501312 -26.375336l37.0 -22.0l26.123352 -12.750656l36.75067 -12.0l29.750671 -4.8740234l25.249329 0" fill-rule="evenodd"/><path stroke="#f2f2f2" stroke-width="24.0" stroke-linejoin="round" stroke-linecap="butt" d="m-0.7506562 443.7638l18.0 0l22.501312 -4.126007l20.624672 -6.1259766l67.874016 -29.748016l39.12599 -26.126007l70.0 -52.75064l54.24933 -43.123352l38.501312 -26.375336l37.0 -22.0l26.123352 -12.750656l36.75067 -12.0l29.750671 -4.8740234l25.249329 0" fill-rule="evenodd"/><path fill="#000000" fill-opacity="0.0" d="m962.0 443.7638l-18.0 0l-22.501343 -4.126007l-20.624634 -6.1259766l-67.87402 -29.748016l-39.125977 -26.126007l-70.0 -52.75064l-54.24933 -43.123352l-38.501343 -26.375336l-37.0 -22.0l-26.123352 -12.750656l-36.75067 -12.0l-29.75064 -4.8740234l-25.24936 0" fill-rule="evenodd"/><path stroke="#f2f2f2" stroke-width="24.0" stroke-linejoin="round" stroke-linecap="butt" d="m962.0 443.7638l-18.0 0l-22.501343 -4.126007l-20.624634 -6.1259766l-67.87402 -29.748016l-39.125977 -26.126007l-70.0 -52.75064l-54.24933 -43.123352l-38.501343 -26.375336l-37.0 -22.0l-26.123352 -12.750656l-36.75067 -12.0l-29.75064 -4.8740234l-25.24936 0" fill-rule="evenodd"/></g></svg>