<svg version="1.1" viewBox="0.0 0.0 960.0 360.0" fill="none" stroke="none" stroke-linecap="square" stroke-miterlimit="10" xmlns:xlink="http://www.w3.org/1999/xlink" xmlns="http://www.w3.org/2000/svg"><clipPath id="p.0"><path d="m0 0l960.0 0l0 360.0l-960.0 0l0 -360.0z" clip-rule="nonzero"/></clipPath><g clip-path="url(#p.0)"><path fill="#000000" fill-opacity="0.0" d="m0 0l960.0 0l0 360.0l-960.0 0z" fill-rule="evenodd"/><path fill="#000000" fill-opacity="0.0" d="m47.49868 76.5888l74.44969 26.553734l78.82436 84.5009l148.89938 -70.01411l229.90375 -33.797134l232.10577 36.208908l105.10156 70.01411l-98.53961 77.25751l-232.09839 36.21698l-214.57782 -26.553741l-164.22534 -45.872147l-67.87308 72.42589l-63.50573 28.973572l50.36712 -48.291992l35.03386 -70.0141l-63.498413 -106.22302z" fill-rule="evenodd"/><path stroke="#f2f2f2" stroke-width="4.0" stroke-linejoin="round" stroke-linecap="butt" d="m47.49868 76.5888l74.44969 26.553734l78.82436 84.5009l148.89938 -70.01411l229.90375 -33.797134l232.10577 36.208908l105.10156 70.01411l-98.53961 77.25751l-232.09839 36.21698l-214.57782 -26.553741l-164.22534 -45.872147l-67.87308 72.42589l-63.50573 28.973572l50.36712 -48.291992l35.03386 -70.0141l-63.498413 -106.22302z" fill-rule="evenodd"/><path fill="#000000" fill-opacity="0.0" d="m743.7856 110.36999l-100.72693 -82.08913l-286.84018 86.92074" fill-rule="evenodd"/><path stroke="#f2f2f2" stroke-width="4.0" stroke-linejoin="round" stroke-linecap="butt" d="m743.7856 110.36999l-100.72693 -82.08913l-286.84018 86.92074" fill-rule="evenodd"/><path fill="#000000" fill-opacity="0.0" d="m634.2929 257.71732l-98.53229 57.947174l87.58832 28.965515l28.464539 -72.4259" fill-rule="evenodd"/><path stroke="#f2f2f2" stroke-width="4.0" stroke-linejoin="round" stroke-linecap="butt" d="m634.2929 257.71732l-98.53229 57.947174l87.58832 28.965515l28.464539 -72.4259" fill-rule="evenodd"/><path fill="#000000" fill-opacity="0.0" d="m776.6108 162.09059l0 0c0 -8.540848 6.4019775 -15.464569 14.299194 -15.464569l0 0c3.7924194 0 7.4294434 1.6292877 10.111084 4.5294647c2.6816406 2.9001617 4.1881714 6.8336334 4.1881714 10.935104l0 0c0 8.5408325 -6.4019775 15.464569 -14.299255 15.464569l0 0c-7.897217 0 -14.299194 -6.9237366 -14.299194 -15.464569z" fill-rule="evenodd"/><path stroke="#f2f2f2" stroke-width="4.0" stroke-linejoin="round" stroke-linecap="butt" d="m776.6108 162.09059l0 0c0 -8.540848 6.4019775 -15.464569 14.299194 -15.464569l0 0c3.7924194 0 7.4294434 1.6292877 10.111084 4.5294647c2.6816406 2.9001617 4.1881714 6.8336334 4.1881714 10.935104l0 0c0 8.5408325 -6.4019775 15.464569 -14.299255 15.464569l0 0c-7.897217 0 -14.299194 -6.9237366 -14.299194 -15.464569z" fill-rule="evenodd"/><path fill="#000000" fill-opacity="0.0" d="m276.8859 249.74446l25.045166 68.54286l142.3617 -31.633484" fill-rule="evenodd"/><path stroke="#f2f2f2" stroke-width="4.0" stroke-linejoin="round" stroke-linecap="butt" d="m276.8859 249.74446l25.045166 68.54286l142.3617 -31.633484" fill-rule="evenodd"/></g></svg>