<svg version="1.1" viewBox="0.0 0.0 288.0 288.0" fill="none" stroke="none" stroke-linecap="square" stroke-miterlimit="10" xmlns:xlink="http://www.w3.org/1999/xlink" xmlns="http://www.w3.org/2000/svg"><clipPath id="p.0"><path d="m0 0l288.0 0l0 288.0l-288.0 0l0 -288.0z" clip-rule="nonzero"/></clipPath><g clip-path="url(#p.0)"><path fill="#000000" fill-opacity="0.0" d="m0 0l288.0 0l0 288.0l-288.0 0z" fill-rule="evenodd"/><path fill="#000000" fill-opacity="0.0" d="m-3.6666667 144.0l14.395026 -26.70604l7.9951572 -14.661415l11.196428 -18.850395l11.728191 -14.139107l8.529594 -7.3307076l9.06403 -5.7585297l7.9951553 -2.619423l7.9978333 1.047245l12.259956 4.1889763l9.064026 7.8556404l11.196426 13.089241l11.728195 18.85302l8.529587 14.661415l10.127563 18.325462l5.8654327 12.044617" fill-rule="evenodd"/><path stroke="#f2f2f2" stroke-width="4.0" stroke-linejoin="round" stroke-linecap="butt" d="m-3.6666667 144.0l14.395026 -26.70604l7.9951572 -14.661415l11.196428 -18.850395l11.728191 -14.139107l8.529594 -7.3307076l9.06403 -5.7585297l7.9951553 -2.619423l7.9978333 1.047245l12.259956 4.1889763l9.064026 7.8556404l11.196426 13.089241l11.728195 18.85302l8.529587 14.661415l10.127563 18.325462l5.8654327 12.044617" fill-rule="evenodd"/><path fill="#000000" fill-opacity="0.0" d="m291.14172 144.0l-14.342712 26.70604l-7.966095 14.661407l-11.155731 18.850403l-11.685577 14.139099l-8.498596 7.330719l-9.031082 5.7585297l-7.966095 2.6194153l-7.9687653 -1.0472412l-12.215408 -4.18898l-9.031082 -7.8556366l-11.155746 -13.089233l-11.685562 -18.853027l-8.498596 -14.661423l-10.090744 -18.325455l-5.844116 -12.044617" fill-rule="evenodd"/><path stroke="#f2f2f2" stroke-width="4.0" stroke-linejoin="round" stroke-linecap="butt" d="m291.14172 144.0l-14.342712 26.70604l-7.966095 14.661407l-11.155731 18.850403l-11.685577 14.139099l-8.498596 7.330719l-9.031082 5.7585297l-7.966095 2.6194153l-7.9687653 -1.0472412l-12.215408 -4.18898l-9.031082 -7.8556366l-11.155746 -13.089233l-11.685562 -18.853027l-8.498596 -14.661423l-10.090744 -18.325455l-5.844116 -12.044617" fill-rule="evenodd"/></g></svg>